<svg xmlns="http://www.w3.org/2000/svg" width="256" height="256"><path fill="#1976D2" fill-opacity=".016" fill-rule="evenodd" d="M0 128.004v128.004l128.25-.254 128.25-.254.254-127.75L257.008 0H0zm.485.496c0 70.4.119 99.053.265 63.672s.146-92.98 0-128S.485 58.1.485 128.5"/><path fill="#1976D2" fill-opacity=".498" fill-rule="evenodd" d="M110 9.545c-9.625 3.536-18.625 6.963-20 7.617s-2.838 1.108-3.25 1.013-.75.323-.75.932-.646.859-1.435.556c-2.06-.79-2.501 1.457-.8 4.079 1.101 1.697 2.095 2.11 4.094 1.7 2.473-.507 2.45-.454-.359.83-1.65.755-12.962 4.939-25.137 9.3L40.225 43.5l-5.239 14.75C32.105 66.362 29.549 73 29.307 73c-.243 0-.205-.787.083-1.75.332-1.103-.347-2.387-1.835-3.473-2.284-1.668-2.412-1.644-3.981.75-.891 1.36-1.272 2.48-.847 2.488s.283.346-.316.75-5.932 14.42-11.85 31.146L-.2 133.323l16.808 46.741 16.808 46.741 45.042 13.102c27.964 8.134 46.732 13.1 49.498 13.097 4.68-.004 45.053-11.645 46.182-13.316.351-.519 1.026-.719 1.5-.444s1.728-.342 2.787-1.372 1.427-1.872.817-1.872c-.609 0-1.378-.854-1.709-1.897-.417-1.313-1.285-1.767-2.818-1.472-5.109.981 3.437-1.947 21.285-7.293 10.175-3.048 18.855-5.874 19.29-6.28s3.952-9.24 7.816-19.631c3.865-10.391 7.294-19.126 7.62-19.41s.358.158.071.983c-1.701 4.885-1.939 6.206-1.017 5.636.546-.338 1.549.056 2.229.875 1.622 1.954 4.103 1.945 3.353-.011-.317-.825-.051-1.5.59-1.5s.912-.412.601-.915-.193-1.065.262-1.25c.455-.184 4.801-11.135 9.658-24.335s9.212-24.428 9.679-24.95c.466-.522.812-1.872.769-3-.05-1.299-.28-1.543-.627-.668-.302.761-7.881-19.881-16.843-45.871-8.961-25.989-16.666-47.621-17.122-48.07-.67-.66-94.034-34.083-94.65-33.883-.099.032-8.054 2.951-17.679 6.487m6 107.896c0 43.428-.371 72.67-.927 73.014-1.512.935-11.039-3.279-18.244-8.069-18.011-11.973-29.813-31.927-28.576-48.311.67-8.876 3.338-15.896 11.955-31.449C89.51 85.833 91.353 80.483 90.757 72c-.447-6.355-3.944-15.49-5.672-14.815-.444.173-4.808 2.961-9.696 6.195L66.5 69.26l-.01 4.62c-.008 3.914-1.184 6.683-7.702 18.12-4.231 7.425-9.177 17.775-10.99 23-3.065 8.828-3.295 10.385-3.252 22 .043 11.53.29 13.141 3.184 20.761 8.155 21.468 24.582 39.399 45.549 49.72 12.609 6.206 22.349 8.519 35.881 8.519H140V69.841l3.25.691c6.133 1.304 17.255 7.124 23.392 12.24 7.26 6.053 15.205 17.472 18.346 26.37 3.136 8.88 3.898 26.758 1.528 35.841-4.656 17.847-17.21 33.709-32.9 41.568-3.787 1.897-7.499 3.449-8.25 3.449s-1.363.338-1.36.75c.013 1.495 5.778 21.368 6.372 21.961 1.124 1.124 14.578-4.85 22.348-9.922 24.964-16.297 39.573-43.625 39.447-73.789-.061-14.534-2.341-23.833-9.317-38-4.622-9.388-6.238-11.559-15.263-20.5-18.118-17.951-36.541-25.421-62.843-25.48L116 45zM.158 133c0 1.375.227 1.938.504 1.25.278-.687.278-1.812 0-2.5-.277-.687-.504-.125-.504 1.25"/><path fill="#1976D2" fill-opacity=".595" fill-rule="evenodd" d="M123 14.155c-1.375.566-20.465 7.469-42.422 15.341L40.656 43.809l-2.253 6.346A44945 44945 0 0 0 22.56 95.082L8.97 133.664l1.515 4.294c1.875 5.313 1.88 6.304.015 3.042-.786-1.375-1.445-2.169-1.465-1.765-.019.405-1.574-.944-3.455-2.996s-3.752-3.4-4.158-2.995c-.573.573 24.438 72.468 31.24 89.801 1.227 3.128 2.063 3.73 7.114 5.122 3.148.867 18.661 5.31 34.472 9.873s29.033 8.012 29.38 7.665c.8-.799-4.466-7.129-7.128-8.57-2.896-1.567 1.113-.663 17.741 3.999l13.74 3.852 42.26-12.524c23.242-6.889 42.933-12.897 43.758-13.352.824-.454 7.168-16.335 14.097-35.29 6.93-18.954 13.952-38.017 15.605-42.36l3.007-7.897-5.859-17.516c-3.223-9.633-5.668-17.973-5.433-18.531.234-.559.462-.297.505.582.11 2.224 8.749 11.567 9.757 10.55.592-.598-21.765-69.542-23.151-71.392C221.976 36.52 165.481 17 163.903 17c-1.701 0-1.618.385.857 3.968 1.507 2.182 3.561 4.248 4.565 4.591s1.63.82 1.39 1.059c-.24.24-9.59-2.726-20.778-6.591-20.957-7.239-22.693-7.617-26.937-5.872m-7.25 30.389c-.412.434-.75 33.339-.75 73.123 0 60.94-.218 72.333-1.384 72.333-3.817 0-17.977-8.526-24.905-14.997-11.716-10.941-18.421-22.784-20.132-35.559-.932-6.955 2.302-18.691 8.085-29.342C87.708 89.763 89.01 87.064 90.501 81.43c1.035-3.91 1.346-7.616.913-10.88-.704-5.305-3.585-12.92-5.286-13.971-.571-.353-5.334 2.332-10.583 5.967-9.474 6.56-9.545 6.639-9.552 10.781-.005 3.335-1.614 7.085-8.011 18.673-8.598 15.577-13.489 28.731-14.557 39.153-2.861 27.929 19.058 61.591 50.284 77.222 11.539 5.776 20.867 7.931 34.791 8.035l12 .09.256-73.231.257-73.231 6.485 2.354c20.258 7.353 35.09 24.497 39.036 45.121 1.867 9.757 1.846 14.7-.1 24.279-4.199 20.668-19.433 39.301-37.912 46.372-3.089 1.182-5.423 2.651-5.188 3.265.236.613 1.651 5.605 3.145 11.093s2.917 10.304 3.162 10.703c.702 1.141 13.168-3.9 20.726-8.382 8.296-4.919 20.282-16.091 26.279-24.495 5.401-7.57 11.562-20.664 13.806-29.348 2.283-8.831 3.098-25.975 1.643-34.574-5.739-33.929-30.521-60.987-63.595-69.439-8.318-2.125-31.414-3.848-32.75-2.443"/><path fill="#1976D2" fill-opacity=".51" fill-rule="evenodd" d="M84.23 28.437C60.982 36.799 41.576 44.058 41.106 44.57c-.905.985-31.127 87.283-31.114 88.844.007.826 30.015 84.657 30.57 85.401.291.39 31.628 9.176 32.747 9.181.445.002.571-.381.281-.851-.291-.47.569-1.885 1.91-3.145s2.201-2.675 1.91-3.145c-.29-.47.174-.855 1.031-.855s1.559-.42 1.559-.933.9-1.218 2.001-1.567c1.101-.35 2.503-1.573 3.116-2.719.942-1.759.863-1.987-.501-1.464-.889.341-1.616.259-1.616-.182 0-1.601 1.347-2.092 2.687-.98 1.06.88 1.898.644 3.687-1.036 1.486-1.397 2.998-1.955 4.221-1.559 1.048.339-.345-.673-3.095-2.25-12.531-7.183-21.311-14.586-29.461-24.841C49.593 168.065 43 151.091 43 136.028c0-13.782 4.603-26.692 18.017-50.528 4.228-7.514 4.99-9.627 4.613-12.795l-.452-3.794 9.654-6.456C80.141 58.905 85.001 56 85.632 56c1.886 0 5.564 9.069 6.107 15.058.722 7.967-1.674 15.248-9.969 30.294-11.043 20.031-12.249 23.44-12.26 34.648-.009 8.766.259 10.073 3.468 16.923 1.913 4.083 5.418 9.933 7.791 13 7.07 9.143 20.85 20.048 23.367 18.493.7-.433.906-.294.512.344-.796 1.289 7.703 4.759 9.275 3.787.753-.465 1.077-22.341 1.077-72.744V43.724l14.25.573c16.81.675 22.681 2.082 36.25 8.681 16.551 8.049 30.325 21.27 38.255 36.719 2.06 4.012 4.308 7.296 4.995 7.299.688.002 1.25.481 1.25 1.063s.498.751 1.107.375c.75-.464.883.022.412 1.507-.672 2.117-.627 2.132 1.342.446 1.12-.959 1.808-2.113 1.529-2.565s.531-.829 1.801-.837c1.858-.013 2.016-.205.809-.985-1.333-.862-1.333-.979 0-1.055 1.012-.058.866-.333-.446-.847-1.858-.727-1.847-.788.25-1.336 1.578-.413 2.196-.13 2.196 1.007 0 1.049 1.327.264 3.932-2.326 2.734-2.717 3.572-4.155 2.75-4.718-.749-.512-.45-.702.818-.517 1.1.161 2.38.742 2.844 1.292.51.603.667.405.398-.5-1.115-3.738-14.043-42.533-14.264-42.801-.501-.61-87.011-31.149-87.978-31.058-.55.052-20.021 6.935-43.27 15.296m56.953 90.313c.101 26.262.469 44.15.817 39.75.436-5.513.734-6.757.958-4 .179 2.2.278 5.049.222 6.332-.097 2.182.165 2.087 4.092-1.5 2.307-2.108 5.665-5.152 7.461-6.766s3.267-3.751 3.267-4.75c0-1.641 1.104-2.286 3.29-1.921.434.072 2.234-1.222 4-2.877 1.765-1.655 3.533-3.011 3.929-3.013.395-.003.431-.754.08-1.669-.407-1.06-.245-1.42.448-.993.957.592 4.945-2.552 12.858-10.138 1.479-1.418 2.433-3.522 2.495-5.5.096-3.093.13-3.118.964-.705.615 1.777.696 1.214.28-1.944-1.985-15.071-11.957-30.697-25.121-39.365C155.299 75.79 144.684 71 141.962 71c-.605 0-.894 17.697-.779 47.75m30.222 14.988c-2.197 2.197-1.668 2.449 1.595.762 1.65-.853 3-1.69 3-1.859 0-.916-3.392-.106-4.595 1.097m-58.22 48.079c-.173 4.982-.327 5.282-2.435 4.745l-2.25-.573 2.26 1.163c1.242.639 2.505.916 2.806.616.3-.301.379-2.959.175-5.907l-.371-5.361zm44.256.738c-1.864 1.494-1.852 1.512.309.465 1.238-.6 2.25-1.3 2.25-1.555 0-.765-.519-.544-2.559 1.09m-83.774 38.112c-.995.995-.805 3.333.271 3.333.516 0 .87-.9.787-2-.17-2.26-.153-2.239-1.058-1.333"/></svg>